<?xml version="1.0" encoding="utf-8"?><svg xmlns="http://www.w3.org/2000/svg" xmlns:xlink="http://www.w3.org/1999/xlink" width="1340" height="689" preserveAspectRatio="xMidYMid" viewBox="0 0 1340 689" style="z-index:1;margin-right:-1.99468px;display:block;background-repeat-y:initial;background-repeat-x:initial;background-color:rgb(255, 255, 255);animation-play-state:playing" ><g transform="translate(670,344.5) scale(1,1) translate(-670,-344.5)" style="transform:matrix(1, 0, 0, 1, 0, 0);animation-play-state:playing" ><linearGradient id="lg-0.7845536586541906" x1="6" x2="1" y1="6" y2="6" style="animation-play-state:playing" ><stop stop-color="#4d71ff" offset="0" style="animation-play-state:playing" ></stop>

  
<stop stop-color="#bbd8ff" offset="1" style="animation-play-state:playing" ></stop></linearGradient>
<path d="M 0 0 L 0 588.462 Q 134 529.613 268 499.135 T 536 418.725 T 804 387.68 T 1072 318.35 T 1340 275.991 L 1340 0 Z" fill="url(#lg-0.7845536586541906)" opacity="0.4" style="opacity:0.4;animation-play-state:playing" ></path>
<path d="M 0 0 L 0 638.64 Q 134 607.864 268 586.993 T 536 537.808 T 804 397.363 T 1072 343.701 T 1340 261.895 L 1340 0 Z" fill="url(#lg-0.7845536586541906)" opacity="0.4" style="opacity:0.4;animation-play-state:playing" ></path>
<path d="M 0 0 L 0 591.933 Q 134 643.881 268 601.968 T 536 516.043 T 804 420.867 T 1072 353.661 T 1340 274.722 L 1340 0 Z" fill="url(#lg-0.7845536586541906)" opacity="0.4" style="opacity:0.4;animation-play-state:playing" ></path>
<path d="M 0 0 L 0 635.009 Q 134 603.591 268 571.803 T 536 475.119 T 804 482.645 T 1072 338.847 T 1340 288.097 L 1340 0 Z" fill="url(#lg-0.7845536586541906)" opacity="0.4" style="opacity:0.4;animation-play-state:playing" ></path>
<path d="M 0 0 L 0 570.72 Q 134 606.695 268 581.628 T 536 461.834 T 804 432.302 T 1072 338.142 T 1340 260.752 L 1340 0 Z" fill="url(#lg-0.7845536586541906)" opacity="0.4" style="opacity:0.4;animation-play-state:playing" ></path></g></svg>