<?xml version="1.0" encoding="UTF-8" standalone="no"?>
<!-- Created with Inkscape (http://www.inkscape.org/) -->

<svg
   width="500"
   height="500"
   viewBox="0 0 132.29166 132.29167"
   version="1.1"
   id="svg80685"
   inkscape:version="1.1.2 (b8e25be833, 2022-02-05)"
   sodipodi:docname="logo.svg"
   xmlns:inkscape="http://www.inkscape.org/namespaces/inkscape"
   xmlns:sodipodi="http://sodipodi.sourceforge.net/DTD/sodipodi-0.dtd"
   xmlns:xlink="http://www.w3.org/1999/xlink"
   xmlns="http://www.w3.org/2000/svg"
   xmlns:svg="http://www.w3.org/2000/svg">
  <sodipodi:namedview
     id="namedview80687"
     pagecolor="#505050"
     bordercolor="#eeeeee"
     borderopacity="1"
     inkscape:pageshadow="0"
     inkscape:pageopacity="0"
     inkscape:pagecheckerboard="0"
     inkscape:document-units="mm"
     showgrid="false"
     inkscape:zoom="1.3915123"
     inkscape:cx="208.76567"
     inkscape:cy="319.79594"
     inkscape:window-width="1760"
     inkscape:window-height="967"
     inkscape:window-x="-8"
     inkscape:window-y="-8"
     inkscape:window-maximized="1"
     inkscape:current-layer="text37655"
     units="px" />
  <defs
     id="defs80682">
    <linearGradient
       inkscape:collect="always"
       xlink:href="#linearGradient68465"
       id="linearGradient68467"
       x1="327.35938"
       y1="95.675781"
       x2="327.00848"
       y2="438.91956"
       gradientUnits="userSpaceOnUse"
       gradientTransform="translate(-0.91858,1.3060994)" />
    <linearGradient
       inkscape:collect="always"
       id="linearGradient68465">
      <stop
         style="stop-color:#0d244c;stop-opacity:1"
         offset="0"
         id="stop68461" />
      <stop
         style="stop-color:#0058d2;stop-opacity:1"
         offset="0.47100908"
         id="stop77907" />
      <stop
         style="stop-color:#9ec8fe;stop-opacity:1"
         offset="1"
         id="stop68463" />
    </linearGradient>
  </defs>
  <g
     inkscape:label="Capa 1"
     inkscape:groupmode="layer"
     id="layer1">
    <g
       id="g80607"
       transform="matrix(0.26458333,0,0,0.26458333,-29.281689,-23.577463)">
      <g
         id="g198">
        <g
           aria-label="INVESTIGACIÓN Y DESARROLLO TECNOLÓGICO"
           id="text37655"
           style="font-size:13.3333px;line-height:1.25;fill:#000000"
           transform="matrix(1.1591774,0,0,1.2449445,-57.636799,-139.25439)">
          <path
             d="m 160.97075,574.7377 v -9.54425 h 1.26302 v 9.54425 z"
             style="font-family:Arial;-inkscape-font-specification:Arial;fill:#000000"
             id="path66056" />
          <path
             d="m 168.4473,574.7377 v -9.54425 h 1.12416 l 4.34974,7.49347 v -7.49347 h 1.05073 v 9.54425 h -1.12416 l -4.34975,-7.49998 v 7.49998 z"
             style="font-family:Arial;-inkscape-font-specification:Arial;fill:#000000;stroke-width:0.9315"
             id="path66058" />
          <path
             d="m 183.45383,574.7377 -3.23,-9.54425 h 1.19419 l 2.1666,6.93358 q 0.26159,0.83333 0.43787,1.56249 0.19336,-0.78125 0.44926,-1.56249 l 2.2519,-6.93358 h 1.12595 l -3.26413,9.54425 z"
             style="font-family:Arial;-inkscape-font-specification:Arial;fill:#000000;stroke-width:0.934596"
             id="path66060" />
          <path
             d="m 192.00334,574.7377 v -9.54425 h 5.93706 v 1.1263 h -4.85046 v 2.92317 h 4.54241 v 1.11979 h -4.54241 v 3.24869 h 5.04089 v 1.1263 z"
             style="font-family:Arial;-inkscape-font-specification:Arial;fill:#000000;stroke-width:0.927531"
             id="path66062" />
          <path
             d="m 201.79319,571.50858 1.13696,-0.10417 q 0.0807,0.71615 0.37277,1.17838 0.29821,0.45573 0.91949,0.74219 0.62128,0.27995 1.39789,0.27995 0.68964,0 1.21772,-0.21485 0.52809,-0.21484 0.78281,-0.58593 0.26095,-0.3776 0.26095,-0.82031 0,-0.44922 -0.24852,-0.78125 -0.24851,-0.33854 -0.82008,-0.5664 -0.36657,-0.14974 -1.62157,-0.46224 -1.25499,-0.31901 -1.75823,-0.59896 -0.65234,-0.35807 -0.9754,-0.88541 -0.31686,-0.53386 -0.31686,-1.19141 0,-0.72265 0.39141,-1.34765 0.3914,-0.63151 1.14315,-0.95703 0.75175,-0.32552 1.67125,-0.32552 1.0127,0 1.78309,0.34505 0.77661,0.33854 1.19287,1.0026 0.41626,0.66406 0.44731,1.50391 l -1.15558,0.0911 q -0.0933,-0.90494 -0.63371,-1.36718 -0.5343,-0.46224 -1.58427,-0.46224 -1.09345,0 -1.5967,0.42317 -0.49702,0.41667 -0.49702,1.00912 0,0.51432 0.35412,0.84635 0.34793,0.33203 1.81415,0.68359 1.47245,0.34505 2.01917,0.60547 0.79525,0.38411 1.17424,0.97656 0.37897,0.58593 0.37897,1.35416 0,0.76172 -0.41626,1.4388 -0.41625,0.67057 -1.19907,1.04817 -0.7766,0.3711 -1.75202,0.3711 -1.23636,0 -2.07509,-0.37761 -0.83252,-0.3776 -1.3109,-1.13281 -0.47219,-0.76171 -0.49704,-1.71874 z"
             style="font-family:Arial;-inkscape-font-specification:Arial;fill:#000000;stroke-width:0.976879"
             id="path66064" />
          <path
             d="m 216.36813,574.7377 v -8.41795 h -3.14453 v -1.1263 h 7.56509 v 1.1263 h -3.15755 v 8.41795 z"
             style="font-family:Arial;-inkscape-font-specification:Arial;fill:#000000"
             id="path66066" />
          <path
             d="m 225.12818,574.7377 v -9.54425 h 1.26302 v 9.54425 z"
             style="font-family:Arial;-inkscape-font-specification:Arial;fill:#000000"
             id="path66068" />
          <path
             d="m 235.81767,570.83195 v -1.11979 l 3.30918,-0.007 v 3.54166 q -0.76202,0.74218 -1.572,1.11978 -0.80997,0.3711 -1.66258,0.3711 -1.15102,0 -2.09421,-0.59896 -0.93787,-0.60547 -1.41747,-1.74479 -0.47959,-1.13932 -0.47959,-2.54556 0,-1.39323 0.47427,-2.59765 0.47959,-1.21094 1.37482,-1.79687 0.89524,-0.58594 2.06225,-0.58594 0.84727,0 1.52936,0.33854 0.68742,0.33203 1.07641,0.93099 0.38901,0.59896 0.59151,1.56249 l -0.93254,0.3125 q -0.17585,-0.72916 -0.43696,-1.14583 -0.26111,-0.41666 -0.74604,-0.66406 -0.48492,-0.2539 -1.07641,-0.2539 -0.70873,0 -1.22562,0.26692 -0.5169,0.26042 -0.83663,0.69011 -0.3144,0.42968 -0.49024,0.944 -0.29842,0.88542 -0.29842,1.92057 0,1.27604 0.35703,2.13541 0.36236,0.85938 1.04977,1.27604 0.68742,0.41667 1.46009,0.41667 0.67143,0 1.31089,-0.3125 0.63945,-0.31901 0.96984,-0.67708 v -1.77734 z"
             style="font-family:Arial;-inkscape-font-specification:Arial;fill:#000000;stroke-width:0.904713"
             id="path66070" />
          <path
             d="m 243.94065,574.7377 3.66535,-9.54425 h 1.36068 l 3.90624,9.54425 h -1.4388 l -1.11328,-2.89062 h -3.99088 l -1.04817,2.89062 z m 2.7539,-3.91926 h 3.23567 l -0.9961,-2.64323 q -0.45572,-1.20442 -0.67708,-1.97916 -0.18229,0.91797 -0.51432,1.82291 z"
             style="font-family:Arial;-inkscape-font-specification:Arial;fill:#000000"
             id="path66072" />
          <path
             d="m 262.69191,571.22859 1.26302,0.31901 q -0.39714,1.55599 -1.43229,2.3763 -1.02865,0.8138 -2.51953,0.8138 -1.54296,0 -2.51301,-0.625 -0.96354,-0.63151 -1.47135,-1.82291 -0.5013,-1.19141 -0.5013,-2.55859 0,-1.49088 0.5664,-2.59765 0.57292,-1.11328 1.62109,-1.68619 1.05469,-0.57943 2.3177,-0.57943 1.43229,0 2.40885,0.72917 0.97656,0.72916 1.36068,2.05077 l -1.24349,0.29297 q -0.33203,-1.04166 -0.96354,-1.51692 -0.63151,-0.47526 -1.58854,-0.47526 -1.10026,0 -1.84244,0.52734 -0.73568,0.52734 -1.03515,1.41927 -0.29948,0.88541 -0.29948,1.82942 0,1.21744 0.35156,2.1289 0.35807,0.90495 1.10677,1.35416 0.74869,0.44922 1.62109,0.44922 1.06119,0 1.79687,-0.61198 0.73567,-0.61197 0.99609,-1.8164 z"
             style="font-family:Arial;-inkscape-font-specification:Arial;fill:#000000"
             id="path66074" />
          <path
             d="m 267.72576,574.7377 v -9.54425 h 1.26301 v 9.54425 z"
             style="font-family:Arial;-inkscape-font-specification:Arial;fill:#000000"
             id="path66076" />
          <path
             d="m 274.83121,569.92651 q 0,-2.37629 1.06741,-3.71744 1.06741,-1.34765 2.75566,-1.34765 1.10553,0 1.99322,0.63151 0.8877,0.63151 1.3506,1.76432 0.46835,1.1263 0.46835,2.55858 0,1.45182 -0.49013,2.59765 -0.49014,1.14583 -1.38872,1.73828 -0.89859,0.58594 -1.93877,0.58594 -1.12731,0 -2.015,-0.65104 -0.8877,-0.65104 -1.34515,-1.77734 -0.45747,-1.1263 -0.45747,-2.38281 z m 1.08919,0.0195 q 0,1.72526 0.77333,2.72135 0.77878,0.98958 1.94965,0.98958 1.19267,0 1.96056,-1.0026 0.77332,-1.0026 0.77332,-2.84505 0,-1.16536 -0.3322,-2.03124 -0.32676,-0.87239 -0.96394,-1.34765 -0.63173,-0.48177 -1.4214,-0.48177 -1.12187,0 -1.93331,0.92447 -0.80601,0.91797 -0.80601,3.07291 z m 2.05858,-5.50129 0.72431,-1.82291 h 1.28525 l -1.19812,1.82291 z"
             style="font-family:Arial;-inkscape-font-specification:Arial;fill:#000000;stroke-width:0.914605"
             id="path66078" />
          <path
             d="m 287.57338,574.7377 v -9.54425 h 1.12416 l 4.34973,7.49347 v -7.49347 h 1.05073 v 9.54425 h -1.12416 l -4.34975,-7.49998 v 7.49998 z"
             style="font-family:Arial;-inkscape-font-specification:Arial;fill:#000000;stroke-width:0.9315"
             id="path66080" />
          <path
             d="m 309.36761,574.7377 v -4.04296 l -3.67838,-5.50129 h 1.53646 l 1.8815,2.8776 q 0.52083,0.80729 0.97005,1.61458 0.42969,-0.7487 1.04167,-1.6862 l 1.84895,-2.80598 h 1.47135 l -3.80858,5.50129 v 4.04296 z"
             style="font-family:Arial;-inkscape-font-specification:Arial;fill:#000000"
             id="path66082" />
          <path
             d="m 323.76032,574.7377 v -9.54425 h 2.98576 q 1.01103,0 1.54314,0.13672 0.74496,0.1888 1.27117,0.68359 0.68584,0.63802 1.02284,1.63411 0.34292,0.98958 0.34292,2.26562 0,1.08724 -0.23058,1.92708 -0.23059,0.83984 -0.59124,1.39322 -0.36066,0.54688 -0.79227,0.86589 -0.42569,0.3125 -1.03467,0.47526 -0.60306,0.16276 -1.38941,0.16276 z m 1.14701,-1.1263 h 1.85058 q 0.8573,0 1.34211,-0.17578 0.49073,-0.17578 0.78044,-0.49479 0.40796,-0.44922 0.63263,-1.20443 0.23058,-0.76171 0.23058,-1.84244 0,-1.49739 -0.44934,-2.29817 -0.44343,-0.80729 -1.08197,-1.08073 -0.46117,-0.19531 -1.48401,-0.19531 h -1.82102 z"
             style="font-family:Arial;-inkscape-font-specification:Arial;fill:#000000;stroke-width:0.952968"
             id="path66084" />
          <path
             d="m 335.67414,574.7377 v -9.54425 h 6.90103 v 1.1263 h -5.63801 v 2.92317 h 5.27994 v 1.11979 h -5.27994 v 3.24869 h 5.85936 v 1.1263 z"
             style="font-family:Arial;-inkscape-font-specification:Arial;fill:#000000"
             id="path66086" />
          <path
             d="m 346.03086,571.50858 1.04981,-0.10417 q 0.0745,0.71615 0.34421,1.17838 0.27535,0.45573 0.84903,0.74219 0.57367,0.27995 1.29076,0.27995 0.63677,0 1.12438,-0.21485 0.48763,-0.21484 0.72283,-0.58593 0.24094,-0.3776 0.24094,-0.82031 0,-0.44922 -0.22947,-0.78125 -0.22946,-0.33854 -0.75724,-0.5664 -0.33846,-0.14974 -1.49728,-0.46224 -1.15881,-0.31901 -1.62349,-0.59896 -0.60235,-0.35807 -0.90066,-0.88541 -0.29257,-0.53386 -0.29257,-1.19141 0,-0.72265 0.36142,-1.34765 0.3614,-0.63151 1.05555,-0.95703 0.69414,-0.32552 1.54317,-0.32552 0.93508,0 1.64643,0.34505 0.71709,0.33854 1.10145,1.0026 0.38436,0.66406 0.41304,1.50391 l -1.06703,0.0911 q -0.086,-0.90494 -0.58514,-1.36718 -0.49335,-0.46224 -1.46286,-0.46224 -1.00966,0 -1.47433,0.42317 -0.45893,0.41667 -0.45893,1.00912 0,0.51432 0.32699,0.84635 0.32125,0.33203 1.67512,0.68359 1.35959,0.34505 1.86442,0.60547 0.7343,0.38411 1.08424,0.97656 0.34994,0.58593 0.34994,1.35416 0,0.76172 -0.38436,1.4388 -0.38436,0.67057 -1.10719,1.04817 -0.71709,0.3711 -1.61775,0.3711 -1.1416,0 -1.91606,-0.37761 -0.76871,-0.3776 -1.21044,-1.13281 -0.43599,-0.76171 -0.45893,-1.71874 z"
             style="font-family:Arial;-inkscape-font-specification:Arial;fill:#000000;stroke-width:0.938701"
             id="path66088" />
          <path
             d="m 357.40266,574.7377 3.05298,-9.54425 h 1.13334 l 3.25361,9.54425 h -1.19842 l -0.92727,-2.89062 h -3.32411 l -0.87305,2.89062 z m 2.2938,-3.91926 h 2.69508 l -0.82968,-2.64323 q -0.37959,-1.20442 -0.56395,-1.97916 -0.15184,0.91797 -0.42839,1.82291 z"
             style="font-family:Arial;-inkscape-font-specification:Arial;fill:#000000;stroke-width:0.912648"
             id="path66090" />
          <path
             d="m 369.36359,574.7377 v -9.54425 h 3.73123 q 1.12511,0 1.71063,0.26042 0.58552,0.2539 0.93567,0.90494 0.35017,0.65104 0.35017,1.4388 0,1.01562 -0.57977,1.71224 -0.57978,0.69661 -1.791,0.88541 0.44201,0.24089 0.67162,0.47526 0.48793,0.50781 0.9242,1.26953 l 1.4638,2.59765 h -1.40065 l -1.11364,-1.98567 q -0.48792,-0.85938 -0.80365,-1.31511 -0.31572,-0.45572 -0.56829,-0.63801 -0.24683,-0.1823 -0.50515,-0.25391 -0.18943,-0.0456 -0.61996,-0.0456 h -1.29158 v 4.23827 z m 1.11363,-5.33202 h 2.39373 q 0.76347,0 1.194,-0.17578 0.43052,-0.18229 0.65439,-0.57292 0.22388,-0.39713 0.22388,-0.85937 0,-0.67708 -0.43627,-1.11328 -0.43052,-0.43619 -1.36621,-0.43619 h -2.66352 z"
             style="font-family:Arial;-inkscape-font-specification:Arial;fill:#000000;stroke-width:0.939"
             id="path66092" />
          <path
             d="m 380.99246,574.7377 v -9.54425 h 3.73123 q 1.12511,0 1.71063,0.26042 0.58552,0.2539 0.93568,0.90494 0.35016,0.65104 0.35016,1.4388 0,1.01562 -0.57977,1.71224 -0.57978,0.69661 -1.79099,0.88541 0.442,0.24089 0.67162,0.47526 0.48793,0.50781 0.9242,1.26953 l 1.46379,2.59765 h -1.40065 l -1.11363,-1.98567 q -0.48793,-0.85938 -0.80365,-1.31511 -0.31572,-0.45572 -0.5683,-0.63801 -0.24683,-0.1823 -0.50514,-0.25391 -0.18944,-0.0456 -0.61997,-0.0456 h -1.29158 v 4.23827 z m 1.11363,-5.33202 h 2.39373 q 0.76347,0 1.194,-0.17578 0.43052,-0.18229 0.6544,-0.57292 0.22387,-0.39713 0.22387,-0.85937 0,-0.67708 -0.43627,-1.11328 -0.43052,-0.43619 -1.3662,-0.43619 h -2.66353 z"
             style="font-family:Arial;-inkscape-font-specification:Arial;fill:#000000;stroke-width:0.939"
             id="path66094" />
          <path
             d="m 425.22281,569.92651 q 0,-2.37629 1.04422,-3.71744 1.04423,-1.34765 2.69582,-1.34765 1.08152,0 1.94993,0.63151 0.86842,0.63151 1.32127,1.76432 0.45818,1.1263 0.45818,2.55858 0,1.45182 -0.47949,2.59765 -0.4795,1.14583 -1.35856,1.73828 -0.87907,0.58594 -1.89666,0.58594 -1.10284,0 -1.97125,-0.65104 -0.86841,-0.65104 -1.31594,-1.77734 -0.44752,-1.1263 -0.44752,-2.38281 z m 1.06554,0.0195 q 0,1.72526 0.75653,2.72135 0.76186,0.98958 1.90731,0.98958 1.16676,0 1.91797,-1.0026 0.75654,-1.0026 0.75654,-2.84505 0,-1.16536 -0.325,-2.03124 -0.31966,-0.87239 -0.943,-1.34765 -0.61801,-0.48177 -1.39052,-0.48177 -1.09751,0 -1.89134,0.92447 -0.78849,0.91797 -0.78849,3.07291 z"
             style="font-family:Arial;-inkscape-font-specification:Arial;fill:#000000;stroke-width:0.904619"
             id="path66096" />
          <path
             d="m 414.9208,574.7377 v -9.54425 h 1.26302 v 8.41795 h 4.70051 v 1.1263 z"
             style="font-family:Arial;-inkscape-font-specification:Arial;fill:#000000"
             id="path66098" />
          <path
             d="m 404.33615,574.7377 v -9.54425 h 1.26302 v 8.41795 h 4.70051 v 1.1263 z"
             style="font-family:Arial;-inkscape-font-specification:Arial;fill:#000000"
             id="path66100" />
          <path
             d="m 392.24854,569.92651 q 0,-2.37629 1.06741,-3.71744 1.06741,-1.34765 2.75566,-1.34765 1.10552,0 1.99322,0.63151 0.8877,0.63151 1.3506,1.76432 0.46835,1.1263 0.46835,2.55858 0,1.45182 -0.49013,2.59765 -0.49014,1.14583 -1.38872,1.73828 -0.89859,0.58594 -1.93877,0.58594 -1.12731,0 -2.01501,-0.65104 -0.88769,-0.65104 -1.34514,-1.77734 -0.45747,-1.1263 -0.45747,-2.38281 z m 1.08919,0.0195 q 0,1.72526 0.77333,2.72135 0.77878,0.98958 1.94965,0.98958 1.19267,0 1.96056,-1.0026 0.77332,-1.0026 0.77332,-2.84505 0,-1.16536 -0.3322,-2.03124 -0.32676,-0.87239 -0.96394,-1.34765 -0.63173,-0.48177 -1.4214,-0.48177 -1.12187,0 -1.93331,0.92447 -0.80601,0.91797 -0.80601,3.07291 z"
             style="font-family:Arial;-inkscape-font-specification:Arial;fill:#000000;stroke-width:0.914605"
             id="path66102" />
          <path
             d="m 446.06655,574.7377 v -8.41795 h -3.14452 v -1.1263 h 7.56508 v 1.1263 h -3.15754 v 8.41795 z"
             style="font-family:Arial;-inkscape-font-specification:Arial;fill:#000000"
             id="path66104" />
          <path
             d="m 454.97965,574.7377 v -9.54425 h 6.90102 v 1.1263 h -5.638 v 2.92317 h 5.27993 v 1.11979 h -5.27993 v 3.24869 h 2.23748 3.62188 v 1.1263 z"
             style="font-family:Arial;-inkscape-font-specification:Arial;fill:#000000"
             id="path66106"
             sodipodi:nodetypes="cccccccccccccc" />
          <path
             d="m 471.95204,571.22859 1.12838,0.31901 q -0.3548,1.55599 -1.2796,2.3763 -0.91899,0.8138 -2.25094,0.8138 -1.37848,0 -2.24512,-0.625 -0.86082,-0.63151 -1.3145,-1.82291 -0.44785,-1.19141 -0.44785,-2.55859 0,-1.49088 0.50602,-2.59765 0.51184,-1.11328 1.44827,-1.68619 0.94226,-0.57943 2.07064,-0.57943 1.27959,0 2.15204,0.72917 0.87246,0.72916 1.21563,2.05077 l -1.11093,0.29297 q -0.29663,-1.04166 -0.86082,-1.51692 -0.56419,-0.47526 -1.4192,-0.47526 -0.98296,0 -1.64603,0.52734 -0.65725,0.52734 -0.9248,1.41927 -0.26755,0.88541 -0.26755,1.82942 0,1.21744 0.31408,2.1289 0.3199,0.90495 0.98879,1.35416 0.66887,0.44922 1.44827,0.44922 0.94807,0 1.60532,-0.61198 0.65724,-0.61197 0.8899,-1.8164 z"
             style="font-family:Arial;-inkscape-font-specification:Arial;fill:#000000;stroke-width:0.945197"
             id="path66108" />
          <path
             d="m 478.29175,574.7377 v -9.54425 h 1.12416 l 4.34973,7.49347 v -7.49347 h 1.05073 v 9.54425 h -1.12416 l -4.34975,-7.49998 v 7.49998 z"
             style="font-family:Arial;-inkscape-font-specification:Arial;fill:#000000;stroke-width:0.9315"
             id="path66110" />
          <path
             d="m 490.60928,569.92651 q 0,-2.37629 1.01056,-3.71744 1.01055,-1.34765 2.60887,-1.34765 1.04665,0 1.88706,0.63151 0.84041,0.63151 1.27866,1.76432 0.4434,1.1263 0.4434,2.55858 0,1.45182 -0.46402,2.59765 -0.46404,1.14583 -1.31475,1.73828 -0.85073,0.58594 -1.8355,0.58594 -1.06727,0 -1.90767,-0.65104 -0.84042,-0.65104 -1.27351,-1.77734 -0.4331,-1.1263 -0.4331,-2.38281 z m 1.03118,0.0195 q 0,1.72526 0.73214,2.72135 0.73729,0.98958 1.8458,0.98958 1.12914,0 1.85612,-1.0026 0.73213,-1.0026 0.73213,-2.84505 0,-1.16536 -0.3145,-2.03124 -0.30935,-0.87239 -0.91259,-1.34765 -0.59809,-0.48177 -1.34568,-0.48177 -1.06212,0 -1.83035,0.92447 -0.76307,0.91797 -0.76307,3.07291 z"
             style="font-family:Arial;-inkscape-font-specification:Arial;fill:#000000;stroke-width:0.889913"
             id="path66112" />
          <path
             d="m 502.25265,574.7377 v -9.54425 h 1.26302 v 8.41795 h 4.70051 v 1.1263 z"
             style="font-family:Arial;-inkscape-font-specification:Arial;fill:#000000"
             id="path66114" />
          <path
             d="m 512.99413,569.92651 q 0,-2.37629 1.04422,-3.71744 1.04423,-1.34765 2.69582,-1.34765 1.08152,0 1.94993,0.63151 0.86841,0.63151 1.32126,1.76432 0.45819,1.1263 0.45819,2.55858 0,1.45182 -0.4795,2.59765 -0.47948,1.14583 -1.35856,1.73828 -0.87907,0.58594 -1.89665,0.58594 -1.10284,0 -1.97125,-0.65104 -0.86842,-0.65104 -1.31594,-1.77734 -0.44752,-1.1263 -0.44752,-2.38281 z m 1.06553,0.0195 q 0,1.72526 0.75653,2.72135 0.76186,0.98958 1.90732,0.98958 1.16676,0 1.91797,-1.0026 0.75653,-1.0026 0.75653,-2.84505 0,-1.16536 -0.32499,-2.03124 -0.31966,-0.87239 -0.943,-1.34765 -0.61801,-0.48177 -1.39053,-0.48177 -1.0975,0 -1.89133,0.92447 -0.7885,0.91797 -0.7885,3.07291 z m 2.01387,-5.50129 0.70858,-1.82291 h 1.25734 l -1.17209,1.82291 z"
             style="font-family:Arial;-inkscape-font-specification:Arial;fill:#000000;stroke-width:0.904619"
             id="path66116" />
          <path
             d="m 529.31666,570.83195 v -1.11979 l 3.28358,-0.007 v 3.54166 q -0.75613,0.74218 -1.55984,1.11978 -0.80371,0.3711 -1.64972,0.3711 -1.14211,0 -2.07801,-0.59896 -0.93061,-0.60547 -1.4065,-1.74479 -0.47588,-1.13932 -0.47588,-2.54556 0,-1.39323 0.47059,-2.59765 0.47589,-1.21094 1.36419,-1.79687 0.88832,-0.58594 2.0463,-0.58594 0.84072,0 1.51753,0.33854 0.68209,0.33203 1.06809,0.93099 0.38599,0.59896 0.58692,1.56249 l -0.92532,0.3125 q -0.1745,-0.72916 -0.43359,-1.14583 -0.25908,-0.41666 -0.74025,-0.66406 -0.48118,-0.2539 -1.06809,-0.2539 -0.70326,0 -1.21614,0.26692 -0.5129,0.26042 -0.83016,0.69011 -0.31196,0.42968 -0.48645,0.944 -0.29611,0.88542 -0.29611,1.92057 0,1.27604 0.35427,2.13541 0.35956,0.85938 1.04165,1.27604 0.6821,0.41667 1.4488,0.41667 0.66623,0 1.30074,-0.3125 0.63451,-0.31901 0.96234,-0.67708 v -1.77734 z"
             style="font-family:Arial;-inkscape-font-specification:Arial;fill:#000000;stroke-width:0.901206"
             id="path66118" />
          <path
             d="m 537.50613,574.7377 v -9.54425 h 1.26302 v 9.54425 z"
             style="font-family:Arial;-inkscape-font-specification:Arial;fill:#000000"
             id="path66120" />
          <path
             d="m 549.73709,571.22859 1.04483,0.31901 q -0.32852,1.55599 -1.18486,2.3763 -0.85094,0.8138 -2.08427,0.8138 -1.27642,0 -2.07889,-0.625 -0.79709,-0.63151 -1.21717,-1.82291 -0.4147,-1.19141 -0.4147,-2.55859 0,-1.49088 0.46856,-2.59765 0.47394,-1.11328 1.34105,-1.68619 0.87248,-0.57943 1.91731,-0.57943 1.18486,0 1.99272,0.72917 0.80786,0.72916 1.12561,2.05077 l -1.02867,0.29297 q -0.27468,-1.04166 -0.79709,-1.51692 -0.52242,-0.47526 -1.31411,-0.47526 -0.91019,0 -1.52417,0.52734 -0.60858,0.52734 -0.85632,1.41927 -0.24775,0.88541 -0.24775,1.82942 0,1.21744 0.29083,2.1289 0.29621,0.90495 0.91558,1.35416 0.61936,0.44922 1.34104,0.44922 0.87788,0 1.48646,-0.61198 0.60859,-0.61197 0.82401,-1.8164 z"
             style="font-family:Arial;-inkscape-font-specification:Arial;fill:#000000;stroke-width:0.909532"
             id="path66122" />
          <path
             d="m 555.41138,569.92651 q 0,-2.37629 1.09058,-3.71744 1.09059,-1.34765 2.81551,-1.34765 1.12954,0 2.03651,0.63151 0.90697,0.63151 1.37993,1.76432 0.47853,1.1263 0.47853,2.55858 0,1.45182 -0.50079,2.59765 -0.50078,1.14583 -1.41888,1.73828 -0.9181,0.58594 -1.98086,0.58594 -1.1518,0 -2.05877,-0.65104 -0.90697,-0.65104 -1.37437,-1.77734 -0.46739,-1.1263 -0.46739,-2.38281 z m 1.11285,0.0195 q 0,1.72526 0.79011,2.72135 0.79569,0.98958 1.992,0.98958 1.21856,0 2.00312,-1.0026 0.79013,-1.0026 0.79013,-2.84505 0,-1.16536 -0.33942,-2.03124 -0.33386,-0.87239 -0.98487,-1.34765 -0.64546,-0.48177 -1.45226,-0.48177 -1.14624,0 -1.97531,0.92447 -0.8235,0.91797 -0.8235,3.07291 z"
             style="font-family:Arial;-inkscape-font-specification:Arial;fill:#000000;stroke-width:0.924483"
             id="path66124" />
        </g>
      </g>
      <path
         id="path145"
         style="fill:url(#linearGradient68467);fill-opacity:1"
         d="m 326.4408,96.98188 a 63.783642,63.314644 0 0 0 -63.78321,63.31445 63.783642,63.314644 0 0 0 63.78321,63.31446 63.783642,63.314644 0 0 0 63.78515,-63.31446 63.783642,63.314644 0 0 0 -63.78515,-63.31445 z m -15.90821,124.63086 -13.10156,53.80078 a 86.295517,83.481537 0 0 0 -14.13672,-1.15039 86.295517,83.481537 0 0 0 -86.29687,83.48047 86.295517,83.481537 0 0 0 86.29687,83.48242 86.295517,83.481537 0 0 0 85.88477,-77.9414 l 46.09179,-4.68946 a 57.217682,56.279686 0 0 0 56.56055,47.92383 57.217682,56.279686 0 0 0 57.2168,-56.2793 57.217682,56.279686 0 0 0 -57.2168,-56.27929 57.217682,56.279686 0 0 0 -57.2168,56.24218 l -0.002,-0.0254 -45.09961,4.58789 A 86.295517,83.481537 0 0 0 305.6966,277.14984 l 13.03711,-53.53906 z" />
      <g
         id="g80553">
        <a
           id="a464" />
        <path
           id="path1828"
           style="fill:#0048aa;fill-opacity:1;stroke:#0048aa;stroke-width:1px;stroke-linecap:butt;stroke-linejoin:miter;stroke-opacity:1"
           d="m 136.30043,506.56668 -0.16582,15.58667 12.10454,0.16581 c 6.4915,-2.74192 8.45295,-10.66833 1.98979,-15.58666 z m -6.63262,33.66057 -0.33164,-38.80085 22.2193,0.16582 c 14.26847,5.13456 9.87912,25.79687 -1.82398,26.03305 l -13.59688,0.49744 v 12.27036 z" />
        <path
           id="path2181"
           style="fill:#0048aa;fill-opacity:1;stroke:#0048aa;stroke-opacity:1"
           d="m 186.875,500.26562 a 21.05858,20.06369 0 0 0 -21.05859,20.06446 21.05858,20.06369 0 0 0 21.05859,20.0625 21.05858,20.06369 0 0 0 21.05859,-20.0625 21.05858,20.06369 0 0 0 -21.05859,-20.06446 z m 0.082,6.4668 a 13.845605,13.92851 0 0 1 13.8457,13.92774 13.845605,13.92851 0 0 1 -13.8457,13.92968 13.845605,13.92851 0 0 1 -13.8457,-13.92968 13.845605,13.92851 0 0 1 13.8457,-13.92774 z" />
        <path
           id="ellipse2367"
           style="fill:#0048aa;fill-opacity:1;stroke:#0048aa;stroke-opacity:1"
           d="m 267.46094,500.26562 a 21.05858,20.06369 0 0 0 -21.0586,20.06446 21.05858,20.06369 0 0 0 21.0586,20.0625 21.05858,20.06369 0 0 0 21.05859,-20.0625 21.05858,20.06369 0 0 0 -21.05859,-20.06446 z m 0.082,6.4668 a 13.845605,13.92851 0 0 1 13.8457,13.92774 13.845605,13.92851 0 0 1 -13.8457,13.92968 13.845605,13.92851 0 0 1 -13.8457,-13.92968 13.845605,13.92851 0 0 1 13.8457,-13.92774 z" />
        <path
           id="ellipse2371"
           style="fill:#0048aa;fill-opacity:1;stroke:#0048aa;stroke-opacity:1"
           d="m 372.75391,500.09961 a 21.05858,20.06369 0 0 0 -21.0586,20.06445 21.05858,20.06369 0 0 0 21.0586,20.0625 21.05858,20.06369 0 0 0 21.05859,-20.0625 21.05858,20.06369 0 0 0 -21.05859,-20.06445 z m 0.082,6.4668 a 13.845605,13.92851 0 0 1 13.8457,13.92968 13.845605,13.92851 0 0 1 -13.8457,13.92774 13.845605,13.92851 0 0 1 -13.84571,-13.92774 13.845605,13.92851 0 0 1 13.84571,-13.92968 z" />
        <path
           id="ellipse2375"
           style="fill:#0048aa;fill-opacity:1;stroke:#0048aa;stroke-opacity:1"
           d="m 575.87695,500.43164 a 21.05858,20.06369 0 0 0 -21.05859,20.06445 21.05858,20.06369 0 0 0 21.05859,20.0625 21.05858,20.06369 0 0 0 21.0586,-20.0625 21.05858,20.06369 0 0 0 -21.0586,-20.06445 z m 0.084,6.4668 a 13.845605,13.92851 0 0 1 13.8457,13.92773 13.845605,13.92851 0 0 1 -13.8457,13.92969 13.845605,13.92851 0 0 1 -13.84571,-13.92969 13.845605,13.92851 0 0 1 13.84571,-13.92773 z" />
        <path
           style="fill:#0048aa;fill-opacity:1;stroke:#0048aa;stroke-width:1px;stroke-linecap:butt;stroke-linejoin:miter;stroke-opacity:1"
           d="m 217.88171,500.92895 v 38.96667 l 23.21418,0.33163 0.33163,-5.63773 H 224.1827 l 0.33163,-33.66057 z"
           id="path2445" />
        <a
           id="a2892"
           transform="translate(186.37674)"
           style="fill:#0048aa;fill-opacity:1;stroke:#0048aa;stroke-opacity:1" />
        <path
           id="path2894"
           style="fill:#0048aa;fill-opacity:1;stroke:#0048aa;stroke-width:1px;stroke-linecap:butt;stroke-linejoin:miter;stroke-opacity:1"
           d="m 322.67717,506.56668 -0.16582,15.58667 12.10454,0.16581 c 6.4915,-2.74192 8.45295,-10.66833 1.98979,-15.58666 z m -6.63262,33.66057 -0.33164,-38.80085 22.2193,0.16582 c 14.26847,5.13456 9.87912,25.79687 -1.82398,26.03305 l -13.59688,0.49744 v 12.27036 z" />
        <path
           id="path3256"
           style="fill:#0048aa;fill-opacity:1;stroke:#0048aa;stroke-width:1px;stroke-linecap:butt;stroke-linejoin:miter;stroke-opacity:1"
           sodipodi:type="inkscape:offset"
           inkscape:radius="-0.39480174"
           inkscape:original="M 413.71484 501.19922 C 410.90419 501.43496 408.18205 502.23626 405.82617 503.90234 C 403.65318 505.93969 401.91205 508.68454 401.66211 511.71484 C 401.32488 515.48737 404.11731 518.75887 407.36523 520.28906 C 409.343 521.39892 411.62698 521.64779 413.71875 522.42578 C 416.81673 523.6264 420.35631 524.26363 422.78906 526.69141 C 424.40521 528.24071 424.02605 531.15049 422.00977 532.16211 C 419.04006 533.65994 415.58995 533.22555 412.38281 533.09766 C 409.4534 531.55005 406.52511 530.00269 403.5957 528.45508 C 402.54553 530.33432 401.49548 532.21256 400.44531 534.0918 C 403.74628 536.25976 407.19023 538.38194 411.07031 539.32422 C 416.52372 540.74067 422.2466 539.02314 426.97461 536.24805 C 428.70583 533.87338 430.31273 531.18843 430.45508 528.17969 C 430.64316 524.54552 427.91333 521.63177 425.15039 519.66602 C 421.80467 518.61368 418.44205 517.61265 415.10742 516.52734 C 412.74611 515.64115 409.97508 514.00143 409.80469 511.20117 C 409.76342 508.31731 412.93255 506.56414 415.5332 506.89844 C 419.51278 508.00388 423.49308 509.1094 427.47266 510.21484 C 428.19119 508.22505 428.91038 506.23588 429.62891 504.24609 C 427.19629 503.26916 424.69471 502.44989 422.13281 501.88672 C 419.42469 501.29289 416.5255 500.96348 413.71484 501.19922 z "
           d="m 413.74805,501.5918 c -2.74998,0.23065 -5.39059,1.01236 -7.67383,2.62109 -2.10983,1.98601 -3.7812,4.64558 -4.01953,7.53516 a 0.39484122,0.39484122 0 0 1 0,0.002 c -0.31822,3.55986 2.34793,6.70673 5.47851,8.18164 a 0.39484122,0.39484122 0 0 1 0.0254,0.0137 c 1.88662,1.05871 4.14288,1.3102 6.29688,2.11133 a 0.39484122,0.39484122 0 0 1 0.006,0.002 c 3.04739,1.18102 6.6632,1.81488 9.20703,4.35352 1.80964,1.74291 1.38637,4.96599 -0.88086,6.10351 v -0.002 c -3.10689,1.56702 -6.63747,1.10544 -9.82031,0.97852 a 0.39484122,0.39484122 0 0 1 -0.16797,-0.0449 c -2.81612,-1.48776 -5.63127,-2.97518 -8.44727,-4.46289 -0.92531,1.65574 -1.85011,3.31111 -2.77539,4.96679 3.19919,2.09117 6.50546,4.09605 10.1875,4.99024 a 0.39484122,0.39484122 0 0 1 0.006,0 c 5.28768,1.3734 10.87911,-0.28077 15.53516,-2.99805 1.6959,-2.33604 3.22057,-4.93206 3.35547,-7.7832 0.1764,-3.40863 -2.40004,-6.20943 -5.09766,-8.13868 -3.3194,-1.0433 -6.66029,-2.03917 -9.97851,-3.11914 a 0.39484122,0.39484122 0 0 1 -0.0156,-0.006 c -1.20809,-0.45339 -2.52875,-1.09844 -3.5918,-2.01562 -1.06305,-0.91718 -1.874,-2.13128 -1.96679,-3.65625 a 0.39484122,0.39484122 0 0 1 0,-0.0176 c -0.0227,-1.58765 0.85083,-2.87541 2.04687,-3.68945 1.19604,-0.81405 2.71995,-1.19063 4.12695,-1.00977 a 0.39484122,0.39484122 0 0 1 0.0547,0.01 c 3.86239,1.07289 7.72545,2.14585 11.58789,3.21875 0.6323,-1.75076 1.26424,-3.50135 1.89649,-5.25195 -2.3044,-0.9081 -4.66211,-1.68265 -7.07422,-2.2129 -2.68038,-0.58774 -5.54318,-0.91097 -8.30078,-0.67968 z" />
        <rect
           style="fill:#0048aa;fill-opacity:1;stroke:#0048aa;stroke-opacity:1"
           id="rect5392"
           width="6.4668088"
           height="39.464115"
           x="441.89859"
           y="500.92896" />
        <path
           id="rect5394"
           style="fill:#0048aa;fill-opacity:1;stroke:#0048aa;stroke-opacity:1"
           d="m 457.98242,500.92969 v 5.4707 h 12.43555 v 33.66016 h 6.13672 v -33.66016 h 12.10351 v -5.4707 h -12.10351 -6.13672 z" />
        <rect
           style="fill:#0048aa;fill-opacity:1;stroke:#0048aa;stroke-opacity:1"
           id="rect5479"
           width="6.4668088"
           height="39.464115"
           x="497.61264"
           y="500.59732" />
        <path
           style="fill:#0048aa;fill-opacity:1;stroke:#0046af;stroke-width:1px;stroke-linecap:butt;stroke-linejoin:miter;stroke-opacity:1"
           d="m 512.20441,501.4264 8.12497,-0.16582 10.94383,31.00752 12.10454,-31.17333 h 7.13007 l -15.58667,38.96666 h -6.96426 z"
           id="path5514" />
      </g>
    </g>
  </g>
</svg>
